<svg xmlns="http://www.w3.org/2000/svg" viewBox="0 0 512 512" width="512" height="512" role="img" aria-label="iMoo Desktop">
  <defs>
    <!-- Blue diagonal gradient: lighter top-left → deeper bottom-right -->
    <linearGradient id="bg" x1="0%" y1="0%" x2="100%" y2="100%">
      <stop offset="0%" stop-color="#60a5fa"/>
      <stop offset="55%" stop-color="#3b82f6"/>
      <stop offset="100%" stop-color="#2563eb"/>
    </linearGradient>
    <!-- Subtle top gloss for depth -->
    <linearGradient id="gloss" x1="0%" y1="0%" x2="0%" y2="100%">
      <stop offset="0%" stop-color="#ffffff" stop-opacity="0.22"/>
      <stop offset="55%" stop-color="#ffffff" stop-opacity="0"/>
    </linearGradient>
    <!-- Soft drop shadow under the watch case -->
    <filter id="watchShadow" x="-20%" y="-20%" width="140%" height="140%">
      <feGaussianBlur in="SourceAlpha" stdDeviation="6"/>
      <feOffset dx="0" dy="8" result="off"/>
      <feComponentTransfer><feFuncA type="linear" slope="0.28"/></feComponentTransfer>
      <feMerge>
        <feMergeNode/>
        <feMergeNode in="SourceGraphic"/>
      </feMerge>
    </filter>
  </defs>

  <!-- Background squircle (iOS-style ~22.5% radius) -->
  <rect width="512" height="512" rx="116" fill="url(#bg)"/>
  <rect width="512" height="512" rx="116" fill="url(#gloss)"/>

  <!-- Watch straps: rounded white bars, top & bottom -->
  <rect x="200" y="92"  width="112" height="68" rx="22" fill="#ffffff"/>
  <rect x="200" y="352" width="112" height="68" rx="22" fill="#ffffff"/>
  <!-- Stitch accent on straps (subtle blue on white) -->
  <rect x="220" y="116" width="72" height="6" rx="3" fill="#3b82f6" opacity="0.35"/>
  <rect x="220" y="390" width="72" height="6" rx="3" fill="#3b82f6" opacity="0.35"/>

  <!-- Watch case: white outer ring + deep-blue dial -->
  <circle cx="256" cy="256" r="128" fill="#ffffff" filter="url(#watchShadow)"/>
  <circle cx="256" cy="256" r="104" fill="#1e3a8a"/>

  <!-- Tick marks at 12 / 3 / 6 / 9 -->
  <rect x="252" y="168" width="8"  height="20" rx="2" fill="#ffffff"/>
  <rect x="252" y="324" width="8"  height="20" rx="2" fill="#ffffff"/>
  <rect x="168" y="252" width="20" height="8"  rx="2" fill="#ffffff"/>
  <rect x="324" y="252" width="20" height="8"  rx="2" fill="#ffffff"/>

  <!-- Hour hand → 10 o'clock; Minute hand → 2 o'clock (classic 10:10 pose) -->
  <line x1="256" y1="256" x2="206" y2="216" stroke="#ffffff" stroke-width="14" stroke-linecap="round"/>
  <line x1="256" y1="256" x2="316" y2="226" stroke="#ffffff" stroke-width="12" stroke-linecap="round"/>

  <!-- Center pin -->
  <circle cx="256" cy="256" r="10" fill="#ffffff"/>
  <circle cx="256" cy="256" r="4"  fill="#1e3a8a"/>
</svg>
